<svg width="96" height="96" viewBox="0 0 96 96" fill="none" xmlns="http://www.w3.org/2000/svg">
<rect width="96" height="96" rx="24" fill="#F8F8FA"/>
<path d="M62.0614 64.0003H41.5944C41.2947 64.0003 41.0494 63.7123 41.0494 63.3604C41.0494 63.0084 41.2947 62.7204 41.5944 62.7204H61.3148C60.6773 60.7558 58.4268 55.8219 51.9096 55.8219C47.1961 55.8219 44.6568 58.4264 43.3544 60.615C43.1801 60.903 42.8422 60.9734 42.597 60.775C42.3518 60.5702 42.2918 60.1735 42.4608 59.8855C43.9102 57.4473 46.7329 54.542 51.9096 54.542C60.759 54.542 62.5736 63.13 62.5899 63.2132C62.6281 63.4052 62.5899 63.6036 62.4864 63.7571C62.3829 63.9107 62.2248 64.0003 62.0614 64.0003Z" fill="black"/>
<path d="M44.1119 55.8216C44.0574 55.8216 43.9974 55.8088 43.9429 55.7896C43.6596 55.6808 43.5016 55.316 43.5942 54.9833C43.6269 54.8681 46.8201 43.2019 43.0602 39.9894C42.815 39.7783 42.7659 39.3815 42.9403 39.0935C43.1201 38.8055 43.458 38.7416 43.7032 38.9527C48.1006 42.7156 44.7767 54.8681 44.635 55.38C44.5532 55.6488 44.3407 55.8216 44.1119 55.8216Z" fill="black"/>
<path d="M50.5636 55.8928C50.3239 55.8928 50.1059 55.7072 50.0405 55.4256C49.8988 54.8113 46.6184 40.4254 54.6614 37.5969C54.9502 37.4945 55.2553 37.6865 55.3425 38.0256C55.4297 38.3648 55.2662 38.7232 54.9774 38.8256C47.9535 41.2957 51.0649 54.9521 51.0976 55.0929C51.1794 55.432 51.005 55.784 50.7162 55.88C50.6617 55.8864 50.6127 55.8928 50.5636 55.8928Z" fill="black"/>
<path d="M40.2375 43.1186C36.6847 43.1186 32.6251 41.4676 32.3635 41.3588C32.1892 41.2884 32.0584 41.1156 32.0148 40.898C31.9712 40.6869 32.0257 40.4629 32.1565 40.3029C32.8158 39.5158 33.1809 38.5495 33.5678 37.5255C34.3579 35.4201 35.257 33.0396 38.9951 32.3612C44.7821 31.3053 45.9864 37.8583 45.9973 37.9287C46.0572 38.2743 45.8665 38.6134 45.5723 38.6838C45.278 38.7542 44.9892 38.5303 44.9293 38.1847C44.8911 37.9607 43.9157 32.7708 39.1586 33.6283C36.009 34.1979 35.3388 35.9833 34.565 38.0439C34.2598 38.8566 33.9492 39.6821 33.4806 40.4437C36.4013 41.5124 42.2973 43.0034 43.992 40.4181C44.1773 40.1365 44.5206 40.0853 44.7549 40.3029C44.9947 40.5205 45.0382 40.9172 44.853 41.1988C43.9048 42.6451 42.1447 43.1186 40.2375 43.1186Z" fill="black"/>
<path d="M47.6429 44.0531C47.632 44.0531 47.6266 44.0531 47.6157 44.0531C47.3432 44.0403 47.1198 43.7843 47.098 43.4643C46.7656 38.5432 43.4362 37.3401 43.2945 37.2889C43.2564 37.2761 40.8043 36.393 39.006 37.9992C37.3223 39.5031 36.4122 39.7591 36.3142 39.7783C36.0199 39.8487 35.7311 39.6247 35.6712 39.2791C35.6112 38.9335 35.7965 38.6008 36.0907 38.524C36.118 38.5176 36.8863 38.2808 38.3467 36.9753C40.6081 34.9595 43.4907 36.009 43.6106 36.0538C43.6324 36.0602 46.5422 37.0841 47.7247 40.8342C48.5148 38.4984 50.1877 35.2923 53.4844 35.0043C53.5171 34.9979 55.2609 34.7099 56.5087 36.553C56.7158 36.8601 56.9011 37.1673 57.0754 37.4489C57.5822 38.2872 57.8928 38.7672 58.3723 38.8823C58.6666 38.9527 58.8573 39.2919 58.7974 39.6375C58.7374 39.983 58.4486 40.207 58.1544 40.1366C57.2335 39.9127 56.7267 39.0807 56.1872 38.1912C56.0237 37.9224 55.8548 37.6409 55.6586 37.3529C54.8086 36.105 53.6534 36.2714 53.6043 36.2778C49.2668 36.6618 48.1879 43.4451 48.177 43.5155C48.1334 43.8355 47.9045 44.0531 47.6429 44.0531Z" fill="black"/>
<path d="M57.0972 43.586C56.8847 43.586 56.6721 43.5732 56.4596 43.5476C54.6505 43.3428 53.0921 42.2421 51.8278 40.2839C51.648 40.0023 51.6916 39.5991 51.9314 39.388C52.1711 39.1768 52.5144 39.228 52.6943 39.5096C53.7623 41.167 55.0646 42.1013 56.5577 42.2741C58.8627 42.5429 61.1513 40.975 62.3066 40.0087C61.3802 39.4264 60.6282 38.3193 59.8381 37.161C58.563 35.2859 57.2443 33.3469 55.0592 33.2829C51.2993 33.1741 50.9996 37.0778 50.9887 37.2442C50.9669 37.5961 50.7053 37.8585 50.4056 37.8329C50.1059 37.8073 49.8825 37.5001 49.9043 37.1482C49.9097 37.097 50.2694 31.8559 55.0919 32.003C57.7838 32.0862 59.3313 34.358 60.6936 36.361C61.6636 37.7817 62.4973 39.0104 63.5108 39.1384C63.7233 39.164 63.9086 39.3368 63.974 39.5799C64.0394 39.8231 63.9795 40.0855 63.816 40.2519C63.6852 40.3991 60.5955 43.586 57.0972 43.586Z" fill="black"/>
<path d="M53.2937 64.0003H32.8267C32.6578 64.0003 32.4998 63.9107 32.3962 63.7507C32.2927 63.5972 32.2546 63.3924 32.2982 63.2004C32.3145 63.1108 34.298 54.542 43.1365 54.542C44.804 54.542 46.3406 54.8492 47.7084 55.4571C47.9917 55.5851 48.1334 55.9499 48.0244 56.2826C47.9154 56.6154 47.5994 56.7818 47.3215 56.6538C46.0791 56.1034 44.6732 55.8219 43.1365 55.8219C36.6248 55.8219 34.2707 60.743 33.5896 62.7204H53.2937C53.5934 62.7204 53.8386 63.0084 53.8386 63.3604C53.8386 63.7123 53.5934 64.0003 53.2937 64.0003Z" fill="black"/>
</svg>
