<svg width="96" height="95" viewBox="0 0 96 95" fill="none" xmlns="http://www.w3.org/2000/svg">
<rect width="96" height="95" rx="24" fill="#F8F8FA"/>
<path d="M64.4222 37.1537L65.2757 36.3002H64.0686H61.1998C61.1203 36.3002 61.044 36.2686 60.9877 36.2123C60.9314 36.1561 60.8998 36.0798 60.8998 36.0002C60.8998 35.9206 60.9314 35.8443 60.9877 35.7881C61.044 35.7318 61.1203 35.7002 61.1998 35.7002H65.9998C66.0794 35.7002 66.1557 35.7318 66.212 35.7881C66.2682 35.8443 66.2998 35.9206 66.2998 36.0002V40.8002C66.2998 40.8798 66.2682 40.9561 66.212 41.0123C66.1557 41.0686 66.0794 41.1002 65.9998 41.1002C65.9203 41.1002 65.844 41.0686 65.7877 41.0123C65.7314 40.9561 65.6998 40.8798 65.6998 40.8002V37.9314V36.7241L64.8463 37.5779L56.6127 45.8131L56.6122 45.8135C56.5844 45.8414 56.5513 45.8636 56.5148 45.8787C56.4784 45.8938 56.4393 45.9016 56.3998 45.9016C56.3604 45.9016 56.3213 45.8938 56.2849 45.8787C56.2484 45.8636 56.2153 45.8414 56.1874 45.8135L56.1871 45.8131L51.9535 41.5779L51.5999 41.2242L51.2462 41.5779L43.8127 49.013C43.8127 49.0131 43.8127 49.0131 43.8127 49.0131C43.7562 49.0695 43.6797 49.1012 43.5998 49.1012C43.52 49.1012 43.4434 49.0695 43.387 49.013C43.3305 48.9566 43.2988 48.88 43.2988 48.8002C43.2988 48.7204 43.3305 48.6438 43.387 48.5873L51.387 40.5873L51.3874 40.5869C51.4153 40.559 51.4484 40.5368 51.4849 40.5217C51.5213 40.5066 51.5604 40.4988 51.5998 40.4988C51.6393 40.4988 51.6784 40.5066 51.7148 40.5217C51.7513 40.5368 51.7844 40.559 51.8122 40.5869L51.8126 40.5873L56.0462 44.8225L56.3998 45.1762L56.7534 44.8225L64.4222 37.1537ZM62.5877 46.9881C62.644 46.9318 62.7203 46.9002 62.7998 46.9002C62.8794 46.9002 62.9557 46.9318 63.012 46.9881C63.0682 47.0443 63.0998 47.1206 63.0998 47.2002V60.0002C63.0998 60.0798 63.0682 60.1561 63.012 60.2123C62.9557 60.2686 62.8794 60.3002 62.7998 60.3002C62.7203 60.3002 62.644 60.2686 62.5877 60.2123C62.5314 60.1561 62.4998 60.0798 62.4998 60.0002V47.2002C62.4998 47.1206 62.5314 47.0443 62.5877 46.9881ZM49.7877 50.1881C49.844 50.1318 49.9203 50.1002 49.9998 50.1002C50.0794 50.1002 50.1557 50.1318 50.212 50.1881C50.2682 50.2443 50.2998 50.3206 50.2998 50.4002V60.0002C50.2998 60.0798 50.2682 60.1561 50.212 60.2123C50.1557 60.2686 50.0794 60.3002 49.9998 60.3002C49.9203 60.3002 49.844 60.2686 49.7877 60.2123C49.7314 60.1561 49.6998 60.0798 49.6998 60.0002V50.4002C49.6998 50.3206 49.7314 50.2443 49.7877 50.1881ZM56.0998 53.6002C56.0998 53.5206 56.1314 53.4443 56.1877 53.3881C56.244 53.3318 56.3203 53.3002 56.3998 53.3002C56.4794 53.3002 56.5557 53.3318 56.612 53.3881C56.6682 53.4443 56.6998 53.5206 56.6998 53.6002V60.0002C56.6998 60.0798 56.6682 60.1561 56.612 60.2123C56.5557 60.2686 56.4794 60.3002 56.3998 60.3002C56.3203 60.3002 56.244 60.2686 56.1877 60.2123C56.1314 60.1561 56.0998 60.0798 56.0998 60.0002V53.6002ZM43.2998 55.2002C43.2998 55.1206 43.3314 55.0443 43.3877 54.9881C43.444 54.9318 43.5203 54.9002 43.5998 54.9002C43.6794 54.9002 43.7557 54.9318 43.812 54.9881C43.8682 55.0443 43.8998 55.1206 43.8998 55.2002V60.0002C43.8998 60.0798 43.8682 60.1561 43.812 60.2123C43.7557 60.2686 43.6794 60.3002 43.5998 60.3002C43.5203 60.3002 43.444 60.2686 43.3877 60.2123C43.3314 60.1561 43.2998 60.0798 43.2998 60.0002V55.2002Z" fill="#163760" stroke="#163760"/>
<path d="M36 62H32C31.4696 62 30.9609 61.7893 30.5858 61.4142C30.2107 61.0391 30 60.5304 30 60V53C29.4696 53 28.9609 52.7893 28.5858 52.4142C28.2107 52.0391 28 51.5304 28 51V45C28 44.2044 28.3161 43.4413 28.8787 42.8787C29.4413 42.3161 30.2044 42 31 42H37C37.7956 42 38.5587 42.3161 39.1213 42.8787C39.6839 43.4413 40 44.2044 40 45V51C40 51.5304 39.7893 52.0391 39.4142 52.4142C39.0391 52.7893 38.5304 53 38 53V60C38 60.5304 37.7893 61.0391 37.4142 61.4142C37.0391 61.7893 36.5304 62 36 62ZM31 44C30.8664 43.9912 30.7324 44.011 30.6071 44.0581C30.4818 44.1052 30.368 44.1786 30.2733 44.2733C30.1786 44.368 30.1052 44.4818 30.0581 44.6071C30.011 44.7324 29.9912 44.8664 30 45V51H32V60H36V51H38V45C38.0088 44.8664 37.989 44.7324 37.9419 44.6071C37.8948 44.4818 37.8214 44.368 37.7267 44.2733C37.632 44.1786 37.5182 44.1052 37.3929 44.0581C37.2676 44.011 37.1336 43.9912 37 44H31ZM34 41C33.2089 41 32.4355 40.7654 31.7777 40.3259C31.1199 39.8864 30.6072 39.2616 30.3045 38.5307C30.0017 37.7998 29.9225 36.9956 30.0769 36.2196C30.2312 35.4437 30.6122 34.731 31.1716 34.1716C31.731 33.6122 32.4437 33.2312 33.2196 33.0769C33.9956 32.9225 34.7998 33.0017 35.5307 33.3045C36.2616 33.6072 36.8864 34.1199 37.3259 34.7777C37.7654 35.4355 38 36.2089 38 37C38 38.0609 37.5786 39.0783 36.8284 39.8284C36.0783 40.5786 35.0609 41 34 41ZM34 35C33.6044 35 33.2178 35.1173 32.8889 35.3371C32.56 35.5568 32.3036 35.8692 32.1522 36.2346C32.0009 36.6001 31.9613 37.0022 32.0384 37.3902C32.1156 37.7781 32.3061 38.1345 32.5858 38.4142C32.8655 38.6939 33.2219 38.8844 33.6098 38.9616C33.9978 39.0387 34.3999 38.9991 34.7654 38.8478C35.1308 38.6964 35.4432 38.44 35.6629 38.1111C35.8827 37.7822 36 37.3956 36 37C36 36.4696 35.7893 35.9609 35.4142 35.5858C35.0391 35.2107 34.5304 35 34 35Z" fill="#163760"/>
</svg>
