<svg width="96" height="96" viewBox="0 0 96 96" fill="none" xmlns="http://www.w3.org/2000/svg">
<rect width="96" height="96" rx="24" fill="#F8F8FA"/>
<path fill-rule="evenodd" clip-rule="evenodd" d="M49.4469 23V28.3333H47.4469V23H49.4469ZM57.4673 40.3763C57.7087 40.8304 57.8874 41.3672 57.96 41.9919C58.1248 43.4109 57.8005 44.9624 56.645 46.1691C56.3779 48.7954 55.0932 50.9533 53.2129 52.334H55.6668C58.2774 52.334 60.6544 53.3343 62.4353 54.9726C63.1723 54.8765 63.7379 54.5311 64.1517 54.0035C64.664 53.3505 65.001 52.3391 65.001 51V50.4681L65.4421 50.1708C65.862 49.8878 66.1635 49.6043 66.3627 49.2909C66.5536 48.9905 66.6814 48.615 66.6814 48.0893C66.6814 47.6984 66.5208 47.3937 66.3319 47.1651C66.2375 47.0508 66.1426 46.9643 66.0739 46.9084C66.0401 46.8809 66.0143 46.8622 66.0003 46.8524L65.9912 46.8462L65.4484 46.5121L65.5328 45.8698C65.8464 43.482 65.2077 42.0841 64.3123 41.2604C63.3726 40.396 61.973 40 60.501 40C59.0158 40 58.0532 40.1904 57.4673 40.3763ZM42.7875 52.334C40.9072 50.9533 39.6225 48.7954 39.3554 46.1692C38.1998 44.9626 37.8755 43.411 38.0403 41.9919C38.1129 41.3672 38.2916 40.8304 38.533 40.3763C37.9471 40.1904 36.9845 40 35.4993 40C34.0273 40 32.6277 40.396 31.688 41.2604C30.7926 42.0841 30.1539 43.482 30.4676 45.8698L30.5519 46.5121L30.0091 46.8462L30 46.8524C29.986 46.8622 29.9602 46.8809 29.9264 46.9084C29.8578 46.9643 29.7629 47.0508 29.6684 47.1651C29.4795 47.3937 29.3189 47.6984 29.3189 48.0893C29.3189 48.615 29.4467 48.9905 29.6376 49.2909C29.8368 49.6043 30.1383 49.8878 30.5582 50.1708L30.9993 50.4681V51C30.9993 52.3391 31.3363 53.3505 31.8486 54.0035C32.3403 54.6303 33.0461 55 33.9993 55V55.1934C35.8031 53.4246 38.2743 52.334 41.0002 52.334H42.7875ZM39.2468 38.5054C39.3675 36.1124 40.1839 34.2225 41.7264 32.9075C43.5923 31.3167 46.0453 31 48.0002 31C50.0573 31 52.506 31.4527 54.349 33.0728C55.8397 34.3833 56.6708 36.2173 56.7841 38.4953C57.5993 38.2261 58.7925 38 60.501 38C62.2748 38 64.2329 38.4699 65.6663 39.7885C67.0465 41.058 67.7919 42.9755 67.576 45.5699C67.6708 45.6613 67.7722 45.7684 67.8738 45.8913C68.2634 46.3629 68.6814 47.103 68.6814 48.0893C68.6814 48.9743 68.4562 49.7257 68.0505 50.3638C67.7565 50.8264 67.3851 51.2021 66.9871 51.5177C66.9086 52.9601 66.4968 54.2545 65.7253 55.238C65.4499 55.5891 65.1345 55.8925 64.7841 56.1439C70.0109 56.9962 74.0003 61.5322 74.0003 67V73H65.6668V73.0006H31.0002V73H22V67C22 61.5322 25.9894 56.9962 31.2163 56.1439C30.8658 55.8925 30.5504 55.5891 30.275 55.238C29.5035 54.2545 29.0917 52.9601 29.0132 51.5177C28.6153 51.2021 28.2438 50.8264 27.9498 50.3638C27.5441 49.7257 27.3189 48.9743 27.3189 48.0893C27.3189 47.103 27.7369 46.3629 28.1266 45.8913C28.2281 45.7684 28.3295 45.6613 28.4243 45.5699C28.2085 42.9755 28.9538 41.058 30.334 39.7885C31.7674 38.4699 33.7255 38 35.4993 38C37.2293 38 38.4309 38.2318 39.2468 38.5054ZM65.6668 62.334C65.6668 60.849 65.3431 59.4395 64.7624 58.1724C68.8893 58.9916 72.0003 62.6325 72.0003 67V71H65.6668V62.334ZM24 67C24 62.3822 27.4778 58.5767 31.957 58.0598C31.3434 59.3558 31.0002 60.8048 31.0002 62.334V71H24V67ZM42.149 54.334C42.7555 57.0056 45.1449 59 48.0002 59C50.8554 59 53.2448 57.0056 53.8513 54.334H42.149ZM55.8889 54.337C60.2045 54.4546 63.6668 57.99 63.6668 62.334V71.0006H33.0002V62.334C33.0002 58.2135 36.1154 54.8206 40.1191 54.382C40.7738 58.1416 44.0532 61 48.0002 61C51.9629 61 55.2526 58.1188 55.8889 54.337ZM54.5343 29.4521L57.201 24.8333L55.4689 23.8333L52.8022 28.4521L54.5343 29.4521ZM39.4689 24.8333L42.1356 29.4521L43.8676 28.4521L41.201 23.8333L39.4689 24.8333ZM54.4887 45.1393C55.5644 44.4286 55.8971 43.3642 55.7662 42.2368C55.5979 40.7885 54.4887 40.4792 54.4887 40.4792C54.5225 40.2269 54.5476 39.9825 54.5644 39.746C54.928 34.6388 51.425 33.1642 48.0002 33.1642C44.4167 33.1642 40.8807 34.3957 41.5117 40.4792C41.5117 40.4792 40.7005 40.7054 40.3603 41.6766C40.3026 41.8411 40.2585 42.027 40.2342 42.2368C40.1032 43.3642 40.4359 44.4287 41.5117 45.1393C41.5117 49.1792 44.4167 51.8358 48.0002 51.8358C51.5836 51.8358 54.4887 49.1793 54.4887 45.1393Z" fill="#171717"/>
</svg>
